<?xml version="1.0" standalone="no"?>
<!DOCTYPE svg PUBLIC "-//W3C//DTD SVG 20010904//EN"
 "http://www.w3.org/TR/2001/REC-SVG-20010904/DTD/svg10.dtd">
<svg version="1.0" xmlns="http://www.w3.org/2000/svg"
 width="300.000000pt" height="300.000000pt" viewBox="0 0 300.000000 300.000000"
 preserveAspectRatio="xMidYMid meet">
<metadata>
Created by potrace 1.10, written by Peter Selinger 2001-2011
</metadata>
<g transform="translate(0.000000,300.000000) scale(0.100000,-0.100000)"
fill="#245684" stroke="none">
<path d="M1265 2949 c-30 -12 -76 -20 -115 -20 -86 -1 -121 -13 -145 -49 -11
-16 -32 -35 -47 -41 -48 -20 -106 -117 -95 -160 3 -12 0 -22 -9 -26 -8 -3 -21
-18 -29 -34 -17 -32 -20 -83 -5 -74 6 4 10 12 9 18 -4 30 2 48 14 44 6 -2 17
2 22 10 10 13 10 12 6 -79 0 -16 -6 -28 -12 -28 -6 0 -8 16 -6 40 2 22 0 40
-4 40 -8 0 -11 -12 -13 -57 -1 -10 -5 -21 -10 -24 -5 -4 6 -28 24 -54 18 -26
34 -59 35 -74 4 -50 17 -90 31 -95 10 -4 11 -25 7 -97 l-6 -92 34 7 c179 35
379 29 439 -14 15 -11 34 -20 42 -20 7 1 1 8 -14 16 -16 8 -28 19 -28 24 0 5
-29 23 -65 41 -59 28 -70 30 -127 24 -35 -4 -88 -16 -118 -26 -30 -10 -55 -19
-56 -19 -4 0 2 229 6 232 3 3 18 14 34 26 16 12 23 22 15 22 -22 0 53 57 127
96 119 62 146 67 396 65 53 0 96 -10 202 -46 173 -58 177 -60 204 -99 27 -40
44 -94 32 -101 -5 -3 -5 -17 1 -33 6 -15 12 -34 14 -43 2 -9 14 -41 28 -70 13
-30 28 -65 32 -79 4 -14 20 -38 35 -55 26 -28 50 -66 50 -80 0 -3 -25 18 -55
47 -65 62 -91 79 -82 54 5 -12 1 -16 -17 -16 -45 0 -41 -47 4 -51 8 -1 20 -2
25 -4 6 -1 20 -3 32 -3 18 -2 23 -11 33 -73 7 -43 10 -107 6 -162 -10 -150
-11 -181 -3 -202 5 -14 -1 -29 -18 -49 -31 -36 -31 -37 0 -23 28 13 28 14 45
139 9 67 15 85 26 81 8 -3 14 -11 14 -18 0 -8 5 -17 10 -20 17 -10 11 22 -7
40 -13 14 -14 21 -5 36 13 21 7 45 -14 53 -9 4 -14 21 -14 50 0 36 5 48 25 64
17 14 25 30 25 50 0 45 20 129 41 176 23 51 24 89 3 154 -10 29 -13 58 -9 69
20 48 0 121 -51 188 -18 24 -44 66 -58 92 -26 51 -46 73 -112 116 -22 15 -55
42 -73 61 -22 23 -39 32 -52 29 -15 -4 -22 0 -26 16 -3 12 -16 24 -29 27 -14
4 -29 15 -35 25 -5 11 -17 19 -26 19 -9 0 -25 8 -36 18 -19 16 -20 16 -8 -5
20 -39 14 -44 -49 -40 -38 2 -66 9 -78 20 -22 20 -54 22 -81 5 -15 -9 -25 -9
-46 0 -14 7 -39 12 -55 12 -17 0 -30 5 -30 10 0 14 -36 13 -60 -2 -16 -10 -22
-10 -32 4 -12 15 -17 15 -63 -3z m-408 -466 c-4 -3 -7 0 -7 7 0 7 3 10 7 7 3
-4 3 -10 0 -14z m60 -120 c-4 -3 -10 -3 -14 0 -3 4 0 7 7 7 7 0 10 -3 7 -7z
m23 -28 c0 -8 -4 -15 -10 -15 -5 0 -10 7 -10 15 0 8 5 15 10 15 6 0 10 -7 10
-15z"/>
<path d="M1608 2178 c-27 -7 -39 -17 -49 -41 -7 -18 -22 -40 -34 -49 -18 -16
-18 -17 -2 -18 10 0 20 6 23 14 13 35 130 64 267 67 72 2 95 10 63 22 -8 3
-52 6 -98 7 -45 0 -94 2 -108 4 -14 1 -41 -1 -62 -6z"/>
<path d="M1748 2133 c6 -2 18 -2 25 0 6 3 1 5 -13 5 -14 0 -19 -2 -12 -5z"/>
<path d="M1635 2115 l-40 -14 40 5 40 5 -32 -17 c-75 -38 -92 -108 -38 -164
45 -47 159 -73 232 -54 30 8 18 32 -13 26 -15 -3 -24 0 -24 8 0 7 -7 10 -15 6
-8 -3 -15 -1 -15 5 0 6 12 9 28 8 15 -2 33 0 40 5 7 4 35 8 63 8 53 -1 61 6
29 26 -29 18 -25 30 10 28 25 -2 30 1 30 21 0 13 -6 25 -12 28 -29 9 -87 12
-90 4 -4 -12 -62 -18 -97 -10 -25 5 -27 9 -20 29 6 15 17 22 34 22 14 0 25 4
25 9 0 5 8 12 18 14 9 3 -5 5 -33 6 -27 1 -66 3 -85 6 -19 2 -53 -2 -75 -10z
m62 -2 c-4 -3 -10 -3 -14 0 -3 4 0 7 7 7 7 0 10 -3 7 -7z m33 -65 c0 -5 -4 -8
-10 -8 -5 0 -10 10 -10 23 0 18 2 19 10 7 5 -8 10 -18 10 -22z m177 -25 c-4
-3 -10 -3 -14 0 -3 4 0 7 7 7 7 0 10 -3 7 -7z"/>
<path d="M1093 2103 c4 -3 10 -3 14 0 3 4 0 7 -7 7 -7 0 -10 -3 -7 -7z"/>
<path d="M1265 2101 c12 -5 -12 -8 -60 -7 -97 1 -145 -8 -179 -35 -23 -18 -26
-28 -26 -77 0 -59 19 -147 27 -124 5 14 33 17 33 3 0 -5 32 -12 70 -16 39 -4
72 -10 74 -14 5 -8 113 -5 143 4 12 4 25 16 28 26 4 10 11 19 16 19 14 0 0
-51 -22 -83 l-20 -27 23 -9 c18 -6 27 -4 41 12 17 20 19 26 22 62 2 30 35 134
44 140 5 2 21 -16 37 -41 34 -54 41 -45 17 22 -15 41 -23 50 -46 52 -36 4 -54
-11 -62 -51 -11 -54 -16 -67 -26 -67 -5 0 -9 12 -9 26 0 15 4 23 11 19 7 -5 8
5 3 29 -5 28 -3 36 7 34 9 -2 15 8 17 25 3 22 -1 27 -18 27 -17 0 -20 -4 -15
-20 4 -12 2 -20 -5 -20 -6 0 -9 4 -6 9 7 11 -22 37 -64 55 -32 14 -33 15 -10
16 23 1 23 2 5 10 -11 5 -31 9 -45 9 -22 0 -23 -1 -5 -8z m-131 -37 c3 -8 10
-12 16 -9 5 3 10 2 10 -4 0 -17 -33 -30 -63 -24 -17 3 -27 12 -27 23 0 30 53
42 64 14z m193 -61 c-4 -3 -10 -3 -14 0 -3 4 0 7 7 7 7 0 10 -3 7 -7z"/>
<path d="M917 2023 c-3 -5 0 -39 5 -78 7 -48 6 -71 -1 -73 -39 -13 -55 -41
-59 -103 -3 -54 2 -78 32 -159 20 -52 40 -96 45 -98 6 -2 7 -10 4 -18 -3 -8 2
-23 11 -33 9 -10 30 -63 47 -117 35 -110 61 -168 92 -201 18 -21 19 -26 8 -60
-21 -63 -59 -97 -156 -140 -49 -22 -111 -48 -137 -57 -27 -10 -92 -46 -146
-81 -61 -40 -134 -77 -195 -99 -160 -59 -300 -130 -380 -195 -41 -33 -77 -68
-81 -77 -3 -8 -6 -110 -6 -225 l0 -209 1500 0 1500 0 0 233 0 232 -78 52 c-42
28 -93 59 -112 68 -60 30 -197 118 -363 235 -51 35 -132 85 -182 110 l-90 45
-37 76 c-20 43 -41 80 -47 84 -8 4 -11 -25 -11 -92 0 -54 -7 -126 -15 -161
-20 -85 -84 -217 -133 -272 -21 -25 -37 -51 -35 -57 3 -7 0 -13 -6 -13 -6 0
-20 -9 -31 -20 -16 -16 -17 -20 -5 -20 8 0 15 -7 15 -15 0 -8 5 -15 11 -15 40
0 -105 -139 -216 -205 l-50 -30 -78 58 c-72 55 -107 97 -107 129 0 9 3 9 8 2
28 -42 199 -34 199 9 0 11 -14 15 -51 16 -27 0 -54 5 -59 10 -7 7 2 8 24 5 33
-6 206 33 195 43 -2 2 -19 0 -38 -5 -18 -5 -38 -7 -44 -5 -16 5 -5 43 13 43 8
0 11 5 8 10 -4 6 -11 8 -16 5 -5 -4 -9 -1 -9 4 0 6 -10 11 -22 11 -12 0 -18 3
-15 7 4 3 -2 12 -13 20 -21 15 -27 43 -9 43 5 0 7 5 4 10 -4 6 8 11 27 12 42
1 47 3 81 16 16 7 34 12 41 12 25 0 35 24 20 44 -11 15 -18 17 -36 10 -13 -6
-52 -9 -88 -7 -36 1 -75 2 -87 3 -48 0 -20 17 37 23 33 3 81 15 107 28 l47 23
-29 13 c-21 10 -23 13 -7 9 12 -2 22 -1 22 4 0 4 12 5 26 2 21 -4 25 -1 22 14
-2 12 4 20 17 22 11 2 28 11 39 21 10 9 19 15 20 13 0 -2 9 0 18 3 15 6 31 34
33 57 0 3 4 10 9 15 5 5 6 2 1 -6 -5 -9 -3 -12 6 -9 8 3 14 13 14 22 0 10 7
22 16 27 9 5 20 20 23 34 3 13 27 50 52 81 38 46 47 65 49 103 2 25 7 62 11
81 l7 35 -22 -25 c-13 -14 -18 -26 -12 -28 6 -2 11 -8 11 -14 0 -25 -29 16
-32 45 -3 36 -18 40 -33 10 -6 -11 -15 -18 -22 -16 -11 4 -29 -33 -25 -49 1
-5 -3 -8 -8 -8 -6 0 -10 10 -10 22 0 22 0 22 -14 3 -7 -11 -19 -44 -27 -73 -8
-32 -22 -61 -36 -72 -12 -9 -19 -20 -16 -24 3 -3 4 -6 1 -6 -3 0 -30 -5 -59
-12 -30 -6 -81 -13 -114 -15 -113 -6 -190 -11 -190 -13 0 -10 -45 -6 -62 5
-12 8 -24 11 -27 6 -8 -13 -89 13 -94 30 -3 8 -11 18 -18 22 -22 13 -16 42 11
57 30 16 32 27 4 35 -12 4 -18 13 -15 20 3 9 0 12 -10 8 -7 -3 -14 0 -14 7 0
6 -7 18 -15 26 -16 17 -21 74 -6 74 12 0 41 -29 41 -40 0 -5 13 -7 30 -4 17 4
36 2 43 -5 8 -6 17 -7 22 -3 4 4 6 1 3 -7 -4 -14 -38 -25 -38 -12 0 4 -9 7
-19 8 -16 1 -18 -2 -12 -20 5 -12 11 -21 14 -20 4 1 23 -5 42 -13 28 -11 40
-12 57 -3 20 11 20 13 5 24 -14 10 -15 14 -4 24 8 6 17 8 20 4 4 -3 7 1 7 10
0 8 -9 18 -19 22 -11 3 -25 13 -33 22 -12 14 -9 16 22 10 19 -3 53 -2 75 2 44
10 37 11 -92 19 -59 4 -35 22 30 22 34 1 82 5 107 11 77 17 150 22 150 11 0
-11 -34 -26 -60 -27 -8 0 -14 -5 -12 -10 2 -11 2 -11 60 0 23 4 45 11 48 16 2
5 28 11 56 15 40 6 58 14 80 38 43 46 38 85 -16 141 -24 25 -49 45 -54 45 -5
0 -17 12 -27 26 -13 20 -14 28 -5 34 8 5 -5 11 -31 15 -24 3 -53 9 -64 12 -18
5 -18 4 -4 -17 8 -13 24 -25 34 -26 41 -6 93 -100 78 -140 -5 -14 -96 -11
-152 5 l-44 13 47 28 c51 29 66 45 66 70 0 10 -5 7 -15 -7 -15 -21 -16 -21
-45 -5 -29 16 -31 16 -74 -6 -48 -26 -67 -24 -124 10 -29 18 -39 19 -71 9 -21
-6 -43 -11 -50 -11 -19 0 -12 27 17 61 22 28 24 32 7 25 -48 -20 -104 -36
-150 -43 l-50 -8 50 -3 c62 -4 71 -12 45 -42 -11 -13 -20 -26 -20 -30 0 -5
-11 -11 -25 -14 -14 -4 -25 -11 -25 -16 0 -6 -8 -10 -18 -10 -10 0 -23 -5 -29
-11 -17 -17 -51 10 -70 57 -14 33 -21 40 -39 36 -27 -5 -40 14 -24 33 10 12
10 15 0 15 -9 0 -11 15 -6 54 3 33 0 73 -8 103 -7 26 -19 74 -26 106 -12 53
-22 68 -33 50z m40 -250 c-3 -10 -5 -2 -5 17 0 19 2 27 5 18 2 -10 2 -26 0
-35z m-30 -60 c-3 -10 -5 -4 -5 12 0 17 2 24 5 18 2 -7 2 -21 0 -30z m-30 -35
c-3 -8 -6 -5 -6 6 -1 11 2 17 5 13 3 -3 4 -12 1 -19z m399 -58 c1 -8 5 -22 9
-31 5 -13 1 -15 -19 -12 -14 3 -26 11 -26 19 0 8 -6 11 -15 8 -18 -7 -20 7 -3
24 17 17 51 11 54 -8z m-356 -25 c0 -5 -5 -3 -10 5 -5 8 -10 20 -10 25 0 6 5
3 10 -5 5 -8 10 -19 10 -25z m675 15 c-3 -5 -13 -10 -21 -10 -8 0 -12 5 -9 10
3 6 13 10 21 10 8 0 12 -4 9 -10z m-278 -37 c-4 -3 -10 -3 -14 0 -3 4 0 7 7 7
7 0 10 -3 7 -7z m373 -83 c-14 -4 -29 -4 -35 -1 -5 3 1 8 15 11 14 4 29 4 35
1 5 -3 -1 -8 -15 -11z m-225 0 c3 -6 -4 -10 -17 -10 -18 0 -20 2 -8 10 19 12
18 12 25 0z m130 0 c-16 -4 -43 -8 -60 -8 -25 -1 -27 1 -10 8 11 5 38 8 60 8
38 0 39 -1 10 -8z m-315 -270 c0 -5 -5 -10 -11 -10 -5 0 -7 5 -4 10 3 6 8 10
11 10 2 0 4 -4 4 -10z m406 -417 c-10 -11 -37 -12 -30 -2 3 5 12 9 21 9 9 0
13 -3 9 -7z m-421 -113 c3 -5 -1 -10 -9 -10 -9 0 -16 5 -16 10 0 6 4 10 9 10
6 0 13 -4 16 -10z m77 -43 c23 -8 -5 -26 -33 -20 -25 5 -27 9 -20 57 0 6 10 0
20 -11 11 -12 26 -23 33 -26z m33 -77 c3 -5 4 -10 1 -10 -3 0 -8 5 -11 10 -3
6 -4 10 -1 10 3 0 8 -4 11 -10z m198 3 c-7 -2 -19 -2 -25 0 -7 3 -2 5 12 5 14
0 19 -2 13 -5z m-100 -109 c-7 -20 -20 -17 -26 5 -3 14 0 17 14 14 10 -3 15
-11 12 -19z m17 -32 c0 -4 -13 -9 -30 -10 -35 -3 -41 15 -7 20 24 4 37 1 37
-10z m30 -8 c0 -8 -4 -12 -10 -9 -5 3 -10 10 -10 16 0 5 5 9 10 9 6 0 10 -7
10 -16z m260 -135 c0 -13 -40 -41 -52 -36 -8 4 -7 6 5 6 18 1 25 21 6 21 -5 0
-8 4 -4 9 6 11 45 11 45 0z"/>
<path d="M2250 1901 c-19 -16 -21 -20 -9 -21 21 0 44 -35 54 -80 7 -32 9 -33
17 -14 11 23 -3 88 -25 118 -12 17 -14 17 -37 -3z"/>
<path d="M1600 1901 c0 -6 5 -13 10 -16 6 -3 10 1 10 9 0 9 -4 16 -10 16 -5 0
-10 -4 -10 -9z"/>
<path d="M2200 1870 c-11 -7 -12 -12 -4 -20 8 -8 13 -6 17 9 3 12 4 21 4 21
-1 0 -9 -5 -17 -10z"/>
<path d="M1340 1820 c0 -7 3 -10 7 -7 3 4 3 10 0 14 -4 3 -7 0 -7 -7z"/>
<path d="M2107 1575 c-4 -8 -3 -16 1 -19 4 -3 9 4 9 15 2 23 -3 25 -10 4z"/>
<path d="M2130 1466 c0 -24 15 -26 28 -5 11 16 9 19 -8 19 -11 0 -20 -6 -20
-14z"/>
<path d="M2090 1410 c0 -7 3 -10 7 -7 3 4 3 10 0 14 -4 3 -7 0 -7 -7z"/>
<path d="M1570 1390 c0 -5 10 -10 23 -10 18 0 19 2 7 10 -19 13 -30 13 -30 0z"/>
<path d="M1973 1393 c4 -3 10 -3 14 0 3 4 0 7 -7 7 -7 0 -10 -3 -7 -7z"/>
<path d="M2025 1390 c3 -5 8 -10 11 -10 3 0 2 5 -1 10 -3 6 -8 10 -11 10 -3 0
-2 -4 1 -10z"/>
<path d="M1910 1381 c0 -6 4 -13 10 -16 6 -3 7 1 4 9 -7 18 -14 21 -14 7z"/>
<path d="M2062 1365 c0 -16 2 -22 5 -12 2 9 2 23 0 30 -3 6 -5 -1 -5 -18z"/>
<path d="M2091 1374 c0 -11 3 -14 6 -6 3 7 2 16 -1 19 -3 4 -6 -2 -5 -13z"/>
<path d="M1990 1370 c0 -7 3 -10 7 -7 3 4 3 10 0 14 -4 3 -7 0 -7 -7z"/>
<path d="M1550 1269 c0 -5 5 -7 10 -4 6 3 10 8 10 11 0 2 -4 4 -10 4 -5 0 -10
-5 -10 -11z"/>
<path d="M1470 1260 c0 -5 5 -10 10 -10 6 0 10 5 10 10 0 6 -4 10 -10 10 -5 0
-10 -4 -10 -10z"/>
</g>
</svg>
