<?xml version="1.0" standalone="no"?>
<!DOCTYPE svg PUBLIC "-//W3C//DTD SVG 20010904//EN"
 "http://www.w3.org/TR/2001/REC-SVG-20010904/DTD/svg10.dtd">
<svg version="1.0" xmlns="http://www.w3.org/2000/svg"
 width="300.000000pt" height="300.000000pt" viewBox="0 0 300.000000 300.000000"
 preserveAspectRatio="xMidYMid meet">
<metadata>
Created by potrace 1.10, written by Peter Selinger 2001-2011
</metadata>
<g transform="translate(0.000000,300.000000) scale(0.100000,-0.100000)"
fill="#000000" stroke="none">
<path d="M1737 2973 c-3 -5 5 -22 19 -38 27 -31 30 -45 12 -45 -15 -1 51 -33
69 -34 7 -1 25 -11 41 -24 23 -19 27 -30 24 -58 -3 -21 0 -34 7 -34 7 0 10 4
6 9 -3 5 2 16 10 24 9 9 12 23 8 34 -5 14 -1 13 15 -5 11 -13 18 -30 15 -38
-3 -9 5 -18 23 -24 15 -6 34 -20 42 -31 10 -15 17 -17 27 -9 9 8 16 2 28 -22
16 -32 15 -33 -6 -40 -21 -6 -21 -6 -1 -7 28 -1 35 -10 24 -32 -7 -12 -7 -20
0 -24 5 -3 10 3 10 15 0 12 4 19 9 16 5 -4 12 0 15 6 3 7 4 6 3 -4 -1 -9 2
-16 7 -15 5 1 13 -8 17 -21 5 -13 13 -21 18 -18 4 3 11 -10 14 -29 3 -18 14
-46 25 -62 11 -15 23 -41 27 -58 l7 -30 -22 28 c-30 38 -35 28 -12 -24 11 -24
20 -51 20 -59 0 -8 3 -30 6 -48 3 -21 1 -30 -6 -26 -7 5 -8 -11 -3 -51 5 -41
3 -60 -5 -65 -7 -4 -12 -23 -13 -43 0 -20 -5 -34 -9 -31 -4 3 -8 0 -8 -5 0 -6
-4 -11 -9 -11 -14 0 -53 81 -47 96 6 15 -12 65 -27 75 -5 3 -8 9 -7 13 5 17
-13 86 -22 86 -6 0 -7 -10 -2 -27 4 -16 8 -40 9 -55 1 -14 9 -38 18 -52 20
-29 22 -50 6 -40 -26 15 4 -53 42 -98 27 -32 39 -56 39 -77 0 -19 5 -31 13
-31 8 0 18 27 26 78 8 42 22 94 32 114 27 54 26 158 -1 178 -23 17 -26 43 -6
59 32 27 2 127 -65 213 -16 20 -34 49 -41 65 -14 34 -77 103 -94 103 -7 0 -38
25 -70 55 -40 39 -60 52 -69 45 -7 -6 -19 -4 -33 6 -28 19 -28 34 0 26 15 -4
19 -2 13 7 -4 7 -17 10 -29 7 -28 -7 -51 8 -43 28 5 12 0 16 -15 16 -12 0 -34
12 -49 26 -15 14 -29 22 -32 17z"/>
<path d="M1261 2949 c-29 -13 -68 -20 -110 -20 -87 -1 -127 -14 -148 -49 -9
-16 -34 -36 -55 -45 -21 -8 -38 -20 -38 -25 0 -6 -9 -23 -20 -39 -12 -15 -22
-38 -24 -52 -1 -14 -6 -30 -10 -37 -4 -7 -2 -12 3 -12 6 0 11 -4 11 -10 0 -5
-6 -10 -14 -10 -24 0 -50 -52 -50 -101 0 -40 6 -54 43 -98 24 -28 56 -59 72
-68 22 -13 29 -25 29 -48 0 -17 -5 -36 -10 -41 -6 -6 -13 -51 -17 -100 -3 -49
-10 -94 -14 -100 -9 -12 4 -137 20 -191 9 -31 8 -33 -14 -33 -38 0 -56 -38
-58 -117 0 -57 6 -85 42 -178 23 -60 50 -119 59 -130 10 -11 28 -56 41 -100
25 -92 63 -172 93 -198 16 -13 19 -24 14 -51 -11 -58 -59 -106 -148 -148 -44
-21 -86 -38 -92 -38 -22 0 -137 -60 -220 -115 -49 -32 -125 -70 -180 -90 -145
-52 -298 -129 -363 -180 -76 -61 -93 -82 -92 -114 l0 -26 16 23 c8 12 24 22
34 22 11 0 19 4 19 9 0 6 11 21 23 35 19 20 26 23 37 13 10 -9 11 -9 6 1 -4 6
-3 12 3 12 5 0 12 -6 14 -12 4 -10 6 -10 6 0 1 21 53 83 65 79 6 -2 47 15 91
38 44 24 96 46 115 50 19 4 40 11 45 15 6 4 26 11 45 15 35 8 160 82 160 96 0
20 222 115 241 104 6 -4 17 2 25 14 21 30 36 26 23 -5 -5 -15 -7 -29 -5 -32 3
-2 0 -14 -6 -26 -7 -11 -11 -25 -10 -30 2 -4 -4 -19 -12 -31 -12 -18 -13 -25
-3 -28 8 -4 8 -8 2 -14 -12 -10 -12 -11 -34 -140 -16 -95 -16 -101 0 -100 13
1 18 15 23 57 11 90 56 324 66 342 6 10 10 25 10 33 0 8 6 15 14 15 7 0 25 9
38 20 28 22 38 18 38 -16 0 -34 39 -185 56 -216 8 -15 14 -29 13 -30 -1 -2 6
-20 15 -42 9 -21 16 -42 16 -46 0 -4 11 -28 24 -53 14 -25 23 -48 20 -51 -2
-3 1 -2 7 3 8 7 0 40 -29 118 -75 203 -92 275 -92 394 l0 79 57 -45 c54 -42
59 -44 80 -29 13 8 23 10 23 4 0 -5 -5 -10 -11 -10 -5 0 -7 -5 -3 -12 4 -6 3
-8 -4 -5 -18 12 -42 -4 -42 -28 0 -25 16 -42 28 -30 3 3 0 10 -7 14 -9 6 -10
14 -4 25 8 15 12 15 36 -4 15 -12 35 -22 46 -23 11 -1 22 -9 24 -18 3 -12 16
-16 45 -16 49 0 46 13 -3 23 -20 3 -39 14 -44 23 -5 9 -13 15 -18 15 -15 -3
-45 24 -39 34 9 15 -4 42 -19 42 -7 0 -16 -6 -18 -12 -3 -7 -6 -2 -6 11 -1 19
-5 22 -22 18 -16 -4 -23 0 -26 14 -5 16 -8 18 -14 7 -7 -10 -10 -8 -15 9 -4
13 -10 20 -15 17 -5 -3 -9 4 -9 16 0 11 -7 23 -15 26 -8 4 -15 14 -15 25 0 10
-6 22 -13 26 -27 18 -67 91 -73 136 -4 26 -10 47 -15 47 -4 0 -10 15 -14 33
-3 17 -12 48 -19 67 -24 61 -37 184 -35 322 1 73 -2 149 -6 169 -5 28 -3 38 9
42 9 4 16 14 15 24 0 16 -1 16 -9 -2 -5 -11 -9 -16 -9 -11 -1 5 -8 3 -16 -4
-13 -11 -15 -8 -15 13 0 25 23 57 41 57 5 0 12 18 15 40 4 22 11 43 15 46 5 3
6 11 2 17 -9 14 -5 69 9 122 9 36 78 139 139 206 27 30 100 65 157 75 45 8 54
13 46 25 -3 5 -11 6 -17 2 -12 -7 -19 -9 -79 -19 -21 -3 -38 -10 -38 -15 0 -5
-9 -9 -21 -9 -28 0 -131 -100 -178 -172 l-38 -58 -40 40 c-22 21 -38 41 -35
44 2 3 -7 10 -22 15 -24 10 -26 15 -27 68 -1 51 -2 54 -10 28 -5 -16 -7 -36
-4 -42 2 -7 -1 -13 -7 -13 -6 0 -8 11 -4 31 3 17 6 40 6 50 0 11 6 19 14 19 8
0 16 7 19 14 5 11 13 13 36 6 30 -8 30 -8 15 15 -15 23 -14 23 8 17 23 -6 23
-5 5 22 -20 30 -19 36 10 39 11 0 20 7 20 14 0 8 -8 11 -24 7 -31 -8 -22 19
11 34 20 9 25 7 34 -11 9 -19 11 -19 11 -4 1 14 6 17 24 11 33 -10 11 9 -25
22 l-31 10 34 16 c22 11 36 13 40 6 4 -7 9 -6 14 2 11 17 24 -6 26 -45 1 -24
3 -25 6 -7 5 25 13 28 31 10 7 -7 12 -8 12 -2 0 5 -8 17 -19 26 -10 8 -20 21
-22 27 -2 6 -15 12 -29 14 -14 2 -24 8 -23 13 2 13 23 17 23 5 0 -6 8 -11 18
-11 10 0 22 -4 28 -10 14 -14 54 0 55 19 0 10 3 11 6 4 3 -10 7 -10 18 0 7 7
11 15 8 20 -2 4 1 7 7 7 6 0 13 -7 17 -17 8 -19 -45 -66 -65 -58 -8 3 -12 0
-9 -7 2 -7 14 -12 25 -10 12 2 22 -2 22 -7 0 -6 5 -11 11 -11 8 0 8 4 1 13 -7
8 -5 18 8 34 l18 23 16 -23 17 -22 -12 24 c-8 18 -8 25 1 31 6 4 11 10 11 14
-3 20 1 26 15 26 9 0 14 -6 11 -13 -3 -7 1 -24 9 -38 10 -17 13 -19 14 -7 0 9
-5 20 -10 23 -8 5 -8 11 0 20 8 9 8 15 0 20 -5 3 -10 11 -10 16 0 6 11 -2 24
-16 14 -15 30 -24 36 -20 8 5 6 12 -5 25 -8 9 -13 24 -9 34 8 21 -9 20 -65 -5z
m-131 -64 c0 -9 -7 -18 -16 -22 -18 -7 -39 11 -30 26 11 17 46 13 46 -4z
m-196 -1152 c3 -65 8 -134 11 -153 5 -35 5 -35 -16 10 -12 25 -25 53 -30 62
-5 10 -9 47 -9 83 0 49 4 67 15 71 11 5 12 11 4 25 -7 14 -6 19 4 19 11 0 16
-27 21 -117z"/>
<path d="M1378 2963 c-21 -5 -23 -14 -6 -31 10 -10 10 -15 -2 -22 -12 -8 -12
-10 3 -16 9 -3 17 -12 17 -19 0 -8 4 -17 10 -20 6 -3 7 1 4 9 -7 19 7 21 25 4
11 -11 13 -10 9 2 -3 8 -15 21 -29 28 -22 11 -19 12 29 10 29 -1 55 -5 58 -10
3 -4 14 -8 26 -8 14 0 18 -5 14 -15 -10 -28 13 -15 29 16 16 30 17 30 34 12
10 -10 16 -24 13 -31 -4 -12 -1 -12 16 -1 18 11 24 11 39 -3 12 -10 25 -13 38
-8 15 5 24 1 36 -17 11 -17 19 -21 24 -13 4 6 0 19 -8 28 -8 9 -12 23 -10 30
3 8 -1 10 -12 6 -21 -9 -36 14 -29 42 3 12 1 25 -5 28 -6 4 -9 -5 -9 -22 2
-49 -10 -56 -45 -29 -49 37 -77 43 -84 18 -3 -12 -12 -21 -20 -21 -24 0 -54
20 -47 32 4 6 -1 8 -13 4 -10 -3 -28 1 -39 9 -19 15 -35 16 -66 8z"/>
<path d="M1428 2818 c-15 -11 -15 -15 -2 -26 12 -11 15 -10 20 2 10 26 1 38
-18 24z"/>
<path d="M1684 2782 c9 -15 46 -22 46 -9 0 7 4 5 10 -3 7 -12 12 -12 22 -2 6
6 10 12 8 13 -62 8 -91 9 -86 1z"/>
<path d="M1650 2736 c0 -14 5 -26 11 -26 5 0 7 5 4 10 -3 6 1 10 10 10 21 0
14 24 -8 28 -12 3 -17 -4 -17 -22z"/>
<path d="M1726 2685 c-3 -8 -1 -17 4 -20 6 -4 10 -1 10 4 0 6 9 11 20 11 28 0
25 15 -4 18 -13 1 -27 -5 -30 -13z"/>
<path d="M1586 2671 c-3 -5 -15 -7 -27 -4 -14 4 -22 0 -25 -15 -3 -11 -15 -25
-27 -31 -21 -11 -21 -11 3 -5 14 3 40 8 57 11 27 4 32 9 31 29 -3 26 -4 28
-12 15z"/>
<path d="M1610 2660 c0 -17 30 -23 53 -11 l22 11 -22 -6 c-13 -3 -23 -1 -23 5
0 6 -7 11 -15 11 -8 0 -15 -5 -15 -10z"/>
<path d="M1477 2639 c-9 -6 -25 -9 -35 -8 -29 3 -38 -1 -23 -10 14 -9 67 4 86
20 13 12 -6 11 -28 -2z"/>
<path d="M1763 2620 c4 -17 1 -19 -21 -14 -15 3 -5 -5 23 -19 28 -13 61 -36
74 -50 22 -25 117 -65 127 -54 3 2 -7 8 -22 11 -15 4 -48 19 -73 34 -38 22
-42 28 -25 30 31 4 158 -67 192 -108 22 -27 43 -83 37 -101 -3 -9 -1 -21 6
-24 12 -8 9 52 -5 90 -7 17 -5 16 13 -4 28 -32 37 -21 10 12 -11 15 -18 31
-14 37 4 6 -1 7 -11 3 -10 -4 -20 0 -26 10 -5 10 -17 17 -27 17 -12 0 -21 10
-26 27 -9 38 -45 60 -45 28 0 -8 -4 -15 -10 -15 -5 0 -10 7 -10 15 0 8 -16 22
-35 31 -19 9 -35 21 -35 26 0 5 5 6 10 3 6 -3 10 -2 10 4 0 5 -12 8 -27 6 -16
-2 -32 -4 -38 -5 -5 -1 0 -5 13 -11 19 -7 21 -11 10 -23 -11 -11 -16 -10 -35
11 -13 13 -23 31 -23 39 0 7 -5 14 -11 14 -6 0 -9 -9 -6 -20z"/>
<path d="M2065 2581 c6 -11 0 -13 -31 -8 -21 3 -31 3 -21 1 9 -3 17 -9 17 -14
0 -5 7 -7 15 -4 8 4 15 1 15 -5 0 -6 4 -11 8 -11 11 0 9 37 -3 47 -4 5 -5 2 0
-6z"/>
<path d="M876 2380 c-7 -18 18 -93 33 -98 16 -5 13 28 -8 73 -13 28 -20 35
-25 25z"/>
<path d="M2120 2333 c0 -13 59 -111 70 -118 5 -3 10 3 10 14 0 12 -4 21 -10
21 -5 0 -21 20 -36 45 -25 43 -34 53 -34 38z"/>
<path d="M1593 2173 c-7 -3 -20 -20 -29 -38 -25 -54 -117 -74 -165 -36 -30 23
-108 61 -126 61 -9 0 -11 -5 -7 -12 4 -7 -2 -5 -14 6 -17 15 -31 17 -69 12
-66 -9 -82 -12 -128 -30 -38 -14 -35 -14 80 -9 133 6 219 -6 258 -38 31 -23
141 -28 154 -6 26 45 130 69 293 68 103 0 104 1 61 14 -54 17 -281 18 -281 1
0 -8 -2 -8 -8 0 -4 6 -13 9 -19 7z"/>
<path d="M1700 2109 c-19 -6 -12 -8 27 -7 29 1 56 -1 59 -5 4 -4 12 -3 18 2 6
5 22 11 36 13 14 3 -6 5 -45 5 -38 0 -81 -3 -95 -8z"/>
<path d="M1108 2090 c-26 -5 -62 -18 -79 -31 l-32 -22 6 -81 c3 -45 10 -92 16
-106 8 -20 9 -16 4 25 -8 69 -6 87 9 96 12 8 4 13 -14 10 -11 -1 -10 21 2 39
5 8 12 11 16 7 4 -4 15 7 25 23 15 24 26 30 56 31 21 1 45 0 53 -2 8 -1 29 -3
45 -3 17 -1 33 -5 37 -11 5 -6 8 -5 8 4 0 10 3 11 14 2 9 -8 16 -8 20 -2 11
17 -119 32 -186 21z"/>
<path d="M1607 2070 c-15 -12 -29 -36 -33 -54 -6 -34 8 -76 27 -76 5 0 2 11
-7 25 -15 22 -14 26 3 57 10 18 27 41 37 51 27 24 4 21 -27 -3z"/>
<path d="M2060 2070 c0 -6 6 -13 14 -16 8 -3 17 -12 20 -19 4 -11 0 -10 -22 1
-36 18 -50 18 -54 -3 -3 -14 9 -21 56 -33 57 -14 61 -17 68 -50 6 -29 4 -321
-3 -355 -1 -5 2 -22 6 -37 5 -20 2 -31 -14 -47 -21 -21 -21 -21 -1 -21 11 0
20 1 21 3 5 17 26 210 25 235 -1 27 2 32 23 32 20 0 22 2 11 15 -7 9 -19 14
-27 11 -11 -5 -12 6 -8 51 3 31 10 62 15 68 18 22 -13 80 -68 128 -56 50 -62
53 -62 37z"/>
<path d="M1890 2048 c0 -4 5 -10 10 -13 6 -4 8 -10 5 -15 -3 -5 8 -11 25 -15
42 -9 42 -45 0 -45 -20 0 -30 5 -30 15 0 8 -4 15 -10 15 -5 0 -10 6 -10 14 0
13 -58 31 -68 21 -9 -9 6 -17 32 -19 14 0 26 -7 26 -13 0 -7 5 -13 12 -13 6 0
9 -2 7 -5 -3 -2 -27 3 -54 11 -72 22 -186 3 -200 -34 -6 -17 33 -6 54 15 13
13 16 13 26 -1 17 -22 100 -23 91 -1 -3 8 -1 15 4 15 6 0 10 -7 10 -16 0 -11
9 -15 33 -13 17 1 47 -1 65 -5 27 -7 32 -12 33 -39 1 -30 2 -30 10 8 4 22 8
61 8 86 l1 47 -40 4 c-22 2 -40 0 -40 -4z"/>
<path d="M1526 2031 c-7 -11 18 -33 27 -24 4 3 7 12 7 20 0 15 -26 18 -34 4z"/>
<path d="M1678 2021 c-49 -17 -72 -41 -39 -41 10 0 21 6 24 13 6 17 90 42 112
34 8 -4 15 -2 15 3 0 15 -59 10 -112 -9z"/>
<path d="M1376 2001 c-6 -9 -20 -11 -50 -7 -40 7 -41 6 -18 -10 13 -9 34 -17
48 -18 27 -1 27 -4 15 -58 -5 -21 -5 -38 -1 -38 11 0 23 77 18 116 -2 21 -5
25 -12 15z"/>
<path d="M1441 1988 c-5 -13 -21 -61 -35 -107 -14 -46 -33 -89 -42 -96 -15
-10 -15 -12 -1 -12 16 0 87 143 87 177 0 21 25 44 38 36 5 -3 22 -31 38 -62
35 -70 42 -58 11 21 -21 54 -26 60 -55 63 -26 3 -34 -1 -41 -20z"/>
<path d="M1097 1962 c-41 -42 -48 -58 -16 -41 12 6 30 9 40 6 11 -3 27 2 36
11 12 12 18 13 21 4 6 -19 82 -15 97 5 7 9 17 13 25 8 9 -5 9 -9 1 -15 -7 -3
2 -7 19 -7 42 0 33 19 -18 37 -35 12 -46 12 -63 2 -16 -10 -19 -10 -14 -1 11
17 -72 3 -102 -17 -32 -20 -29 0 3 25 15 12 23 21 17 21 -5 0 -26 -17 -46 -38z"/>
<path d="M2245 1930 c-3 -5 0 -10 7 -10 7 -1 -2 -14 -21 -30 -18 -15 -31 -34
-28 -42 4 -10 6 -9 6 2 1 8 9 20 19 26 25 16 46 -1 61 -48 18 -56 -7 -177 -47
-222 -13 -14 -14 -20 -4 -23 35 -13 -25 -88 -80 -100 -18 -3 -28 -12 -29 -24
-1 -11 -3 -23 -4 -29 -1 -5 -3 -23 -4 -40 -1 -40 -19 -38 -24 3 -3 27 -4 25
-5 -12 -1 -26 -9 -53 -19 -64 -10 -11 -13 -17 -7 -14 7 4 14 -2 17 -13 3 -11
0 -18 -7 -17 -6 1 -11 -10 -11 -25 0 -19 -15 -43 -47 -78 -26 -27 -51 -50 -57
-50 -6 0 -11 -4 -11 -10 0 -5 -4 -10 -10 -10 -5 0 -7 8 -4 18 3 11 1 10 -6 -3
-13 -24 -50 -50 -50 -36 0 5 -13 3 -30 -5 -16 -9 -30 -21 -30 -28 0 -18 -86
-83 -102 -78 -5 1 -8 -3 -8 -9 0 -6 -8 -9 -18 -7 -10 3 -24 -2 -32 -10 -13
-14 -12 -15 4 -9 10 4 25 2 32 -4 11 -9 14 -9 14 0 0 7 14 17 30 22 17 6 30
15 30 19 0 5 9 12 20 15 11 3 20 13 20 21 0 8 5 14 10 14 18 0 25 3 70 31 l45
28 7 -22 c3 -12 6 -16 7 -9 1 13 31 49 31 38 0 -3 19 15 42 40 30 33 44 41 50
32 4 -7 8 -65 8 -129 0 -137 -19 -216 -101 -411 -47 -112 -83 -171 -134 -219
-53 -50 -123 -106 -148 -119 -16 -8 -39 -25 -52 -37 l-23 -24 -83 63 c-46 35
-93 74 -104 88 -35 45 -71 75 -113 95 -23 11 -42 23 -42 28 0 4 -4 7 -10 7
-22 0 -7 -20 44 -58 29 -23 57 -38 61 -34 5 4 5 2 1 -5 -3 -6 -2 -14 4 -18 6
-4 8 -10 5 -15 -3 -5 5 -16 17 -24 26 -19 15 -35 -12 -18 -11 7 -20 8 -20 3 0
-12 36 -24 48 -17 11 7 82 -42 82 -56 0 -6 3 -8 7 -5 9 10 53 -33 53 -51 0
-10 6 -12 18 -7 9 4 24 8 32 9 23 3 80 30 80 38 0 12 25 9 56 -7 26 -13 30
-13 51 7 17 16 23 31 21 55 -1 18 -7 33 -13 33 -5 1 4 8 20 17 17 9 34 22 38
30 5 7 13 11 18 8 5 -4 12 7 15 24 4 17 10 31 13 31 14 0 51 41 46 51 -4 5 -2
9 3 9 6 0 13 15 16 33 3 18 15 49 26 70 12 21 30 64 41 95 11 31 25 66 30 77
11 23 16 44 31 135 6 36 14 69 18 73 4 5 16 -5 26 -22 10 -16 22 -28 26 -25
13 8 56 -23 63 -46 4 -11 10 -18 15 -15 5 3 11 1 15 -4 3 -6 12 -8 20 -5 8 4
13 10 10 15 -3 4 17 -6 44 -24 28 -18 77 -50 111 -71 33 -21 63 -43 67 -49 8
-13 -11 -2 -55 30 -18 14 -35 23 -38 21 -4 -4 68 -60 108 -83 9 -5 38 -23 65
-39 26 -15 73 -42 103 -59 30 -16 81 -45 113 -63 32 -19 60 -34 62 -34 5 0 26
-17 81 -64 27 -22 34 -25 36 -12 0 9 1 20 2 25 1 12 -133 107 -182 129 -50 23
-163 95 -372 239 -47 32 -125 78 -174 104 -49 25 -93 52 -97 60 -101 209 -96
174 -49 324 16 50 31 102 34 116 4 18 19 34 43 46 52 27 77 68 114 186 24 76
30 111 25 144 -7 52 -39 118 -61 127 -22 8 -23 8 -30 -4z m-447 -1642 c-3 -22
-45 -51 -60 -42 -11 7 13 53 31 57 30 8 32 7 29 -15z"/>
<path d="M1580 1925 c0 -3 9 -22 20 -42 18 -34 20 -35 20 -13 0 14 -9 33 -20
43 -11 9 -20 15 -20 12z"/>
<path d="M1681 1895 c17 -17 97 -25 149 -15 29 6 30 8 10 9 -14 2 -34 4 -44 6
-11 2 -28 -1 -38 -6 -11 -6 -18 -6 -18 0 0 5 -8 7 -19 4 -10 -3 -22 0 -25 6
-4 6 -12 11 -19 11 -7 0 -6 -6 4 -15z"/>
<path d="M1290 1888 c-14 -6 -36 -14 -49 -19 -13 -6 -22 -12 -19 -14 8 -8 76
15 88 30 14 17 14 17 -20 3z"/>
<path d="M1610 1793 c0 -23 70 -92 98 -95 17 -2 37 -18 60 -48 18 -25 43 -57
55 -73 22 -28 40 -77 31 -86 -2 -3 -11 5 -20 17 -8 12 -20 20 -25 17 -5 -4 -9
-1 -9 5 0 6 -5 8 -12 3 -7 -4 -23 -6 -35 -4 -13 1 -23 -2 -23 -8 0 -11 34 -16
80 -12 20 2 23 0 13 -10 -7 -7 -13 -17 -13 -22 0 -5 6 -7 13 -4 6 2 17 -3 24
-12 10 -14 13 -13 22 10 16 44 -5 98 -65 164 -30 32 -54 62 -54 66 0 4 22 10
50 14 71 10 71 23 -1 14 -81 -9 -128 3 -161 43 -15 18 -28 27 -28 21z"/>
<path d="M1310 1728 c-20 -10 -58 -18 -90 -19 -98 -1 -103 -16 -7 -20 85 -4
89 -3 114 23 33 35 28 39 -17 16z"/>
<path d="M2210 1670 c0 -16 5 -30 10 -30 6 0 10 14 10 30 0 17 -4 30 -10 30
-5 0 -10 -13 -10 -30z"/>
<path d="M1678 1656 c-13 -17 -19 -19 -29 -8 -19 18 -50 15 -79 -8 -21 -16
-22 -20 -7 -20 10 0 27 4 37 10 13 7 21 6 30 -5 15 -18 57 -1 66 27 8 28 2 29
-18 4z"/>
<path d="M1344 1639 c-3 -6 -14 -9 -25 -6 -15 4 -16 2 -6 -14 13 -20 57 -26
57 -8 0 16 62 0 80 -21 19 -22 43 -30 60 -20 9 6 7 11 -9 19 -11 7 -21 9 -21
5 0 -4 -10 2 -22 13 -45 40 -99 56 -114 32z"/>
<path d="M1573 1539 c-10 -3 -21 -5 -25 -2 -11 6 -10 -15 1 -21 5 -4 12 0 15
6 5 10 7 10 12 1 7 -16 34 -17 34 -3 0 6 11 5 28 -3 28 -14 60 -12 77 4 8 8
-23 14 -49 10 -4 -1 -13 3 -20 8 -13 11 -43 11 -73 0z"/>
<path d="M1404 1523 c5 -13 4 -13 -8 -4 -11 9 -15 8 -20 -5 -9 -24 -8 -26 17
-22 20 3 47 20 47 31 0 3 -9 7 -21 10 -16 4 -19 2 -15 -10z"/>
<path d="M1215 1479 c-4 -5 -18 -14 -31 -19 -13 -5 -24 -14 -24 -20 0 -14 13
-13 28 2 9 9 12 8 12 -6 0 -9 5 -14 10 -11 6 4 16 2 23 -3 11 -9 104 -32 127
-32 6 0 10 6 10 14 0 11 20 14 93 14 50 0 104 4 118 10 37 15 122 18 126 5 4
-12 -54 -36 -67 -28 -5 3 -12 0 -15 -6 -4 -6 -18 -8 -31 -5 -14 4 -24 2 -24
-4 0 -8 -30 -10 -92 -7 -82 4 -89 3 -63 -8 52 -23 227 0 312 41 80 37 77 50
-11 44 -18 -1 -26 2 -22 9 4 6 0 11 -8 11 -9 0 -16 -4 -16 -9 0 -14 -83 -24
-300 -35 -116 -7 -133 -3 -108 22 6 6 8 15 4 19 -4 5 -14 -1 -22 -11 -13 -19
-20 -11 -15 17 2 10 -7 9 -14 -4z"/>
<path d="M1750 1051 c0 -5 -18 -11 -40 -15 -37 -6 -61 -28 -47 -43 9 -8 94 36
101 52 3 8 1 15 -4 15 -6 0 -10 -4 -10 -9z"/>
<path d="M1320 1041 c0 -5 7 -12 16 -15 8 -3 12 -11 8 -17 -4 -7 -3 -9 4 -5
17 11 10 46 -10 46 -10 0 -18 -4 -18 -9z"/>
<path d="M1370 1033 c0 -7 5 -13 11 -13 5 0 8 -4 5 -9 -8 -12 3 -41 15 -41 5
0 9 6 9 14 0 17 -39 65 -40 49z"/>
<path d="M1431 1004 c-1 -31 60 -42 96 -18 25 16 26 16 19 -2 -7 -17 -6 -17
14 1 18 16 20 16 20 2 0 -10 7 -17 15 -17 8 0 15 6 15 14 0 9 7 12 21 9 15 -4
20 -2 17 7 -3 10 -19 13 -49 12 -46 -2 -90 -8 -99 -12 -14 -6 -36 -4 -42 5 -5
6 -8 4 -9 -5 0 -10 -3 -8 -9 5 -8 19 -9 19 -9 -1z"/>
<path d="M1883 1013 c-24 -8 -13 -23 17 -23 17 0 30 4 30 9 0 11 -30 19 -47
14z"/>
<path d="M1266 941 c-10 -15 2 -31 22 -31 9 0 29 -14 44 -32 14 -18 29 -30 32
-27 3 3 -16 27 -43 53 -30 30 -51 44 -55 37z"/>
<path d="M1850 940 c-8 -5 -11 -12 -7 -17 5 -4 12 -1 16 6 6 9 11 10 15 2 11
-16 26 -13 20 4 -7 17 -22 19 -44 5z"/>
<path d="M1453 924 c3 -3 1 -17 -4 -31 -8 -21 -7 -24 7 -19 8 3 18 6 20 6 2 0
4 11 4 25 0 17 -6 25 -17 25 -9 0 -14 -3 -10 -6z"/>
<path d="M1579 923 c-1 -5 -1 -11 0 -15 1 -9 -13 -11 -46 -8 -13 1 -23 -4 -23
-10 0 -7 14 -10 36 -8 27 2 39 9 45 26 5 13 4 22 -1 22 -6 0 -11 -3 -11 -7z"/>
<path d="M2251 820 c0 -25 6 -79 13 -120 7 -41 13 -103 14 -138 0 -35 3 -66 6
-69 5 -6 11 139 6 162 -1 6 -6 47 -10 92 -10 97 -29 145 -29 73z"/>
<path d="M1330 806 c0 -4 16 -21 36 -38 26 -23 32 -33 22 -39 -14 -9 -9 -11
37 -13 11 -1 19 -7 18 -13 -2 -9 8 -12 30 -10 17 2 38 -1 45 -6 9 -7 11 -6 6
7 -3 9 -17 16 -30 16 -24 0 -90 33 -109 54 -19 21 -55 49 -55 42z"/>
<path d="M2282 400 c3 -8 -1 -29 -9 -47 -16 -40 -16 -43 1 -43 17 0 28 80 13
95 -6 7 -8 5 -5 -5z"/>
<path d="M1065 353 c-11 -2 -45 -11 -75 -20 -48 -15 -52 -18 -30 -23 15 -5 29
-2 35 5 6 7 40 19 75 28 56 13 51 22 -5 10z"/>
<path d="M120 331 c0 -24 51 -168 66 -187 15 -19 15 -19 9 1 -4 11 -21 58 -36
104 -29 84 -39 105 -39 82z"/>
<path d="M1894 272 c-6 -4 -13 -17 -17 -30 -5 -20 -2 -22 16 -16 26 8 82 7
152 -4 28 -4 82 -4 120 -1 l70 5 -62 2 c-86 3 -213 22 -244 38 -14 7 -30 9
-35 6z"/>
<path d="M681 138 c-7 -35 -16 -78 -21 -95 -6 -25 -5 -33 5 -33 14 0 47 108
38 124 -4 6 -6 23 -4 38 5 51 -6 29 -18 -34z"/>
<path d="M257 86 c15 -42 32 -76 39 -76 9 0 7 11 -6 38 -10 21 -22 50 -25 65
-4 14 -13 31 -21 38 -9 7 -5 -15 13 -65z"/>
</g>
</svg>
